<svg width="14" height="16" viewBox="0 0 14 16" fill="none" xmlns="http://www.w3.org/2000/svg">
<path d="M4.78926 16C2.40798 15.9862 0.438232 11.1252 0.438232 8.64966C0.438232 4.60578 3.47183 3.72047 4.64095 3.72047C5.16783 3.72047 5.73042 3.92738 6.22664 4.11047C6.57364 4.23819 6.93252 4.37003 7.13211 4.37003C7.25158 4.37003 7.53311 4.25788 7.78167 4.15947C8.31176 3.94844 8.97139 3.68616 9.73951 3.68616H9.74408C10.3176 3.68616 12.0567 3.81203 13.1022 5.38216L13.3471 5.75019L12.9947 6.01616C12.4911 6.39609 11.5724 7.08916 11.5724 8.462C11.5724 10.088 12.6129 10.7133 13.1128 11.014C13.3334 11.1468 13.5618 11.2837 13.5618 11.583C13.5618 11.7785 12.0018 15.9757 9.7363 15.9757C9.18195 15.9757 8.79011 15.8091 8.44448 15.6622C8.09476 15.5134 7.79308 15.3852 7.29458 15.3852C7.04189 15.3852 6.72236 15.5047 6.38408 15.6315C5.9218 15.804 5.39855 16 4.80483 16H4.78926Z" fill="black" fill-opacity="0.87"/>
<path d="M9.97953 0C10.0385 2.12737 8.51712 3.60325 6.9975 3.51069C6.74709 1.81297 8.51694 0 9.97953 0Z" fill="black" fill-opacity="0.87"/>
</svg>
