<svg xmlns="http://www.w3.org/2000/svg" xmlns:xlink="http://www.w3.org/1999/xlink" width="500" zoomAndPan="magnify" viewBox="0 0 375 374.999991" height="500" preserveAspectRatio="xMidYMid meet" version="1.0"><defs><g/><clipPath id="6079eb762a"><path d="M 26.101562 132.386719 L 104.347656 132.386719 L 104.347656 242.390625 L 26.101562 242.390625 Z M 26.101562 132.386719 " clip-rule="nonzero"/></clipPath><clipPath id="def9e9facf"><path d="M 32.96875 138.535156 L 97.734375 138.535156 L 97.734375 203.300781 L 32.96875 203.300781 Z M 32.96875 138.535156 " clip-rule="nonzero"/></clipPath><clipPath id="b46ea242eb"><path d="M 65.351562 138.535156 C 47.46875 138.535156 32.96875 153.03125 32.96875 170.917969 C 32.96875 188.800781 47.46875 203.300781 65.351562 203.300781 C 83.238281 203.300781 97.734375 188.800781 97.734375 170.917969 C 97.734375 153.03125 83.238281 138.535156 65.351562 138.535156 Z M 65.351562 138.535156 " clip-rule="nonzero"/></clipPath><clipPath id="c2274d777f"><path d="M 37 153 L 69 153 L 69 171 L 37 171 Z M 37 153 " clip-rule="nonzero"/></clipPath><clipPath id="e0cb441ce2"><path d="M 37.832031 163.445312 L 65.332031 153.238281 L 68.101562 160.707031 L 40.601562 170.914062 Z M 37.832031 163.445312 " clip-rule="nonzero"/></clipPath><clipPath id="477081ea9f"><path d="M 37.832031 163.445312 L 65.332031 153.238281 L 68.101562 160.707031 L 40.601562 170.914062 Z M 37.832031 163.445312 " clip-rule="nonzero"/></clipPath><clipPath id="239cd84af0"><path d="M 62 153 L 93 153 L 93 171 L 62 171 Z M 62 153 " clip-rule="nonzero"/></clipPath><clipPath id="768a68f12d"><path d="M 65.332031 153.238281 L 92.875 163.457031 L 90.132812 170.847656 L 62.589844 160.628906 Z M 65.332031 153.238281 " clip-rule="nonzero"/></clipPath><clipPath id="04ce89f106"><path d="M 65.332031 153.238281 L 92.875 163.457031 L 90.132812 170.847656 L 62.589844 160.628906 Z M 65.332031 153.238281 " clip-rule="nonzero"/></clipPath><clipPath id="46b176847e"><path d="M 54.289062 170.90625 L 60.871094 170.90625 L 60.871094 207.101562 L 54.289062 207.101562 Z M 54.289062 170.90625 " clip-rule="nonzero"/></clipPath><clipPath id="f456e94b33"><path d="M 57.265625 170.914062 L 78.679688 170.914062 L 78.679688 195.285156 L 57.265625 195.285156 Z M 57.265625 170.914062 " clip-rule="nonzero"/></clipPath><clipPath id="013968086b"><path d="M 77.976562 179.042969 C 78.398438 180.289062 78.679688 181.710938 78.679688 183.105469 C 78.679688 184.5 78.441406 185.839844 78.015625 187.078125 C 78.003906 187.105469 78.003906 187.128906 77.988281 187.15625 C 76.289062 191.800781 71.800781 195.21875 66.746094 195.285156 L 57.265625 195.285156 L 57.265625 170.914062 L 66.742188 170.914062 C 71.828125 170.980469 76.316406 174.347656 77.976562 179.042969 Z M 77.976562 179.042969 " clip-rule="nonzero"/></clipPath><clipPath id="599a0f6261"><path d="M 60.863281 176.675781 L 72.6875 176.675781 L 72.6875 189.535156 L 60.863281 189.535156 Z M 60.863281 176.675781 " clip-rule="nonzero"/></clipPath><clipPath id="7a4770ed61"><path d="M 72.226562 180.964844 C 72.503906 181.621094 72.6875 182.371094 72.6875 183.109375 C 72.6875 183.84375 72.53125 184.550781 72.253906 185.203125 C 72.246094 185.21875 72.246094 185.230469 72.234375 185.246094 C 71.121094 187.695312 68.183594 189.5 64.921875 189.535156 L 60.863281 189.535156 L 60.863281 176.675781 L 64.917969 176.675781 C 68.199219 176.710938 71.140625 178.484375 72.226562 180.964844 Z M 72.226562 180.964844 " clip-rule="nonzero"/></clipPath></defs><g clip-path="url(#6079eb762a)"><path fill="#023e8a" d="M 65.347656 242.609375 C 65.347656 242.609375 26.101562 193.308594 26.101562 171.632812 C 26.101562 149.957031 43.671875 132.386719 65.347656 132.386719 C 87.023438 132.386719 104.59375 149.957031 104.59375 171.632812 C 104.59375 193.308594 65.347656 242.609375 65.347656 242.609375 " fill-opacity="1" fill-rule="nonzero"/></g><path fill="#ffffff" d="M 65.347656 141.371094 C 48.632812 141.371094 35.085938 154.917969 35.085938 171.632812 C 35.085938 188.34375 48.632812 201.890625 65.347656 201.890625 C 82.058594 201.890625 95.609375 188.34375 95.609375 171.632812 C 95.609375 154.917969 82.058594 141.371094 65.347656 141.371094 " fill-opacity="1" fill-rule="nonzero"/><path fill="#023e8a" d="M 76.199219 167.511719 C 75.695312 168.554688 74.988281 169.363281 74.074219 169.929688 C 73.15625 170.496094 72.09375 170.78125 70.886719 170.78125 L 60.839844 170.78125 L 60.839844 156.996094 L 70.886719 156.996094 C 72.09375 156.996094 73.15625 157.285156 74.074219 157.863281 C 74.988281 158.4375 75.695312 159.25 76.199219 160.292969 C 76.703125 161.335938 76.957031 162.542969 76.957031 163.917969 C 76.957031 165.269531 76.703125 166.46875 76.199219 167.511719 Z M 81.199219 157.492188 C 80.199219 155.640625 78.796875 154.210938 76.984375 153.195312 C 75.171875 152.179688 73.074219 151.671875 70.695312 151.671875 L 55.238281 151.671875 L 55.238281 191.59375 L 60.839844 191.59375 L 60.839844 176.105469 L 70.695312 176.105469 C 73.074219 176.105469 75.171875 175.605469 76.984375 174.597656 C 78.796875 173.589844 80.199219 172.167969 81.199219 170.328125 C 82.195312 168.488281 82.695312 166.351562 82.695312 163.917969 C 82.695312 161.480469 82.195312 159.339844 81.199219 157.492188 " fill-opacity="1" fill-rule="nonzero"/><g clip-path="url(#def9e9facf)"><g clip-path="url(#b46ea242eb)"><path fill="#023e8a" d="M 32.96875 138.535156 L 97.734375 138.535156 L 97.734375 203.300781 L 32.96875 203.300781 Z M 32.96875 138.535156 " fill-opacity="1" fill-rule="nonzero"/></g></g><g clip-path="url(#c2274d777f)"><g clip-path="url(#e0cb441ce2)"><g clip-path="url(#477081ea9f)"><path fill="#ffffff" d="M 37.832031 163.445312 L 65.332031 153.238281 L 68.101562 160.707031 L 40.601562 170.914062 Z M 37.832031 163.445312 " fill-opacity="1" fill-rule="nonzero"/></g></g></g><g clip-path="url(#239cd84af0)"><g clip-path="url(#768a68f12d)"><g clip-path="url(#04ce89f106)"><path fill="#ffffff" d="M 65.332031 153.238281 L 92.875 163.457031 L 90.132812 170.847656 L 62.589844 160.628906 Z M 65.332031 153.238281 " fill-opacity="1" fill-rule="nonzero"/></g></g></g><g clip-path="url(#46b176847e)"><path fill="#ffffff" d="M 54.289062 207.101562 L 54.289062 170.90625 L 60.871094 170.90625 L 60.871094 207.101562 Z M 54.289062 207.101562 " fill-opacity="1" fill-rule="nonzero"/></g><g clip-path="url(#f456e94b33)"><g clip-path="url(#013968086b)"><path fill="#ffffff" d="M 78.679688 170.914062 L 78.679688 195.285156 L 57.265625 195.285156 L 57.265625 170.914062 Z M 78.679688 170.914062 " fill-opacity="1" fill-rule="nonzero"/></g></g><g clip-path="url(#599a0f6261)"><g clip-path="url(#7a4770ed61)"><path fill="#023e8a" d="M 72.6875 176.675781 L 72.6875 189.535156 L 60.863281 189.535156 L 60.863281 176.675781 Z M 72.6875 176.675781 " fill-opacity="1" fill-rule="nonzero"/></g></g><g fill="#023e8a" fill-opacity="1"><g transform="translate(115.826017, 207.558528)"><g><path d="M 20.34375 0 L 12.609375 0 L 12.609375 -13.984375 L -0.203125 -37.0625 L 8.921875 -37.0625 L 16.609375 -20.953125 L 23.953125 -37.0625 L 32.71875 -37.0625 L 20.34375 -13.890625 Z M 20.34375 0 "/></g></g></g><g fill="#023e8a" fill-opacity="1"><g transform="translate(147.261863, 207.558528)"><g><path d="M 22.390625 -13.734375 C 22.390625 -16.359375 21.84375 -18.410156 20.75 -19.890625 C 19.664062 -21.367188 18.035156 -22.109375 15.859375 -22.109375 C 13.828125 -22.109375 12.226562 -21.414062 11.0625 -20.03125 C 9.90625 -18.644531 9.328125 -16.546875 9.328125 -13.734375 C 9.328125 -10.984375 9.890625 -8.898438 11.015625 -7.484375 C 12.140625 -6.078125 13.753906 -5.375 15.859375 -5.375 C 18.023438 -5.375 19.65625 -6.101562 20.75 -7.5625 C 21.84375 -9.019531 22.390625 -11.078125 22.390625 -13.734375 Z M 29.828125 -13.734375 C 29.828125 -9.242188 28.535156 -5.707031 25.953125 -3.125 C 23.367188 -0.550781 20.003906 0.734375 15.859375 0.734375 C 11.773438 0.734375 8.425781 -0.546875 5.8125 -3.109375 C 3.195312 -5.671875 1.890625 -9.210938 1.890625 -13.734375 C 1.890625 -18.285156 3.195312 -21.832031 5.8125 -24.375 C 8.425781 -26.914062 11.773438 -28.1875 15.859375 -28.1875 C 20.035156 -28.1875 23.40625 -26.882812 25.96875 -24.28125 C 28.539062 -21.6875 29.828125 -18.171875 29.828125 -13.734375 Z M 29.828125 -13.734375 "/></g></g></g><g fill="#023e8a" fill-opacity="1"><g transform="translate(177.46301, 207.558528)"><g><path d="M 28.125 0 L 21.21875 0 L 21.21875 -3.875 L 21.125 -3.875 C 19.289062 -0.800781 16.5 0.734375 12.75 0.734375 C 9.84375 0.734375 7.554688 -0.117188 5.890625 -1.828125 C 4.234375 -3.546875 3.40625 -6.070312 3.40625 -9.40625 L 3.40625 -27.46875 L 10.640625 -27.46875 L 10.640625 -10.4375 C 10.640625 -8.6875 11.039062 -7.40625 11.84375 -6.59375 C 12.65625 -5.78125 13.816406 -5.375 15.328125 -5.375 C 16.953125 -5.375 18.285156 -5.914062 19.328125 -7 C 20.367188 -8.082031 20.890625 -9.625 20.890625 -11.625 L 20.890625 -27.46875 L 28.125 -27.46875 Z M 28.125 0 "/></g></g></g><g fill="#023e8a" fill-opacity="1"><g transform="translate(207.613759, 207.558528)"><g><path d="M 3.53125 -27.46875 L 10.46875 -27.46875 L 10.46875 -22.71875 L 10.5625 -22.71875 C 11.40625 -24.507812 12.421875 -25.867188 13.609375 -26.796875 C 14.804688 -27.722656 16.300781 -28.1875 18.09375 -28.1875 C 18.570312 -28.1875 19.035156 -28.148438 19.484375 -28.078125 L 19.484375 -20.75 C 19.148438 -20.8125 18.460938 -20.84375 17.421875 -20.84375 C 15.171875 -20.84375 13.5 -20.300781 12.40625 -19.21875 C 11.3125 -18.132812 10.765625 -16.492188 10.765625 -14.296875 L 10.765625 0 L 3.53125 0 Z M 3.53125 -27.46875 "/></g></g></g><g fill="#023e8a" fill-opacity="1"><g transform="translate(226.475963, 207.558528)"><g><path d="M 9.578125 -11.421875 C 9.578125 -9.585938 10.253906 -8.128906 11.609375 -7.046875 C 12.960938 -5.960938 14.898438 -5.421875 17.421875 -5.421875 C 19.941406 -5.421875 21.859375 -5.828125 23.171875 -6.640625 C 24.492188 -7.453125 25.15625 -8.648438 25.15625 -10.234375 C 25.15625 -11.171875 24.8125 -11.984375 24.125 -12.671875 C 23.445312 -13.367188 21.832031 -14.019531 19.28125 -14.625 L 12.984375 -16.078125 C 8.992188 -17.023438 6.28125 -18.304688 4.84375 -19.921875 C 3.414062 -21.546875 2.703125 -23.785156 2.703125 -26.640625 C 2.703125 -29.984375 3.890625 -32.71875 6.265625 -34.84375 C 8.640625 -36.96875 12.207031 -38.03125 16.96875 -38.03125 C 21.6875 -38.03125 25.269531 -36.835938 27.71875 -34.453125 C 30.164062 -32.066406 31.394531 -29.269531 31.40625 -26.0625 L 23.96875 -26.0625 C 23.800781 -27.875 23.09375 -29.253906 21.84375 -30.203125 C 20.601562 -31.160156 18.785156 -31.640625 16.390625 -31.640625 C 14.453125 -31.640625 12.890625 -31.238281 11.703125 -30.4375 C 10.523438 -29.632812 9.9375 -28.554688 9.9375 -27.203125 C 9.9375 -26.253906 10.195312 -25.46875 10.71875 -24.84375 C 11.238281 -24.226562 12.078125 -23.78125 13.234375 -23.5 L 23.140625 -21.046875 C 26.722656 -20.171875 29.191406 -18.914062 30.546875 -17.28125 C 31.910156 -15.644531 32.59375 -13.597656 32.59375 -11.140625 C 32.59375 -7.109375 31.191406 -4.078125 28.390625 -2.046875 C 25.597656 -0.0234375 22.132812 0.984375 18 0.984375 C 12.65625 0.984375 8.675781 -0.148438 6.0625 -2.421875 C 3.445312 -4.703125 2.140625 -7.703125 2.140625 -11.421875 Z M 9.578125 -11.421875 "/></g></g></g><g fill="#023e8a" fill-opacity="1"><g transform="translate(259.57485, 207.558528)"><g><path d="M 10.4375 -13.109375 C 10.4375 -10.691406 10.988281 -8.769531 12.09375 -7.34375 C 13.207031 -5.925781 14.769531 -5.21875 16.78125 -5.21875 C 18.632812 -5.21875 20.085938 -6.007812 21.140625 -7.59375 C 22.203125 -9.1875 22.734375 -11.164062 22.734375 -13.53125 C 22.734375 -16.257812 22.191406 -18.34375 21.109375 -19.78125 C 20.023438 -21.21875 18.519531 -21.9375 16.59375 -21.9375 C 14.519531 -21.9375 12.972656 -21.179688 11.953125 -19.671875 C 10.941406 -18.171875 10.4375 -15.984375 10.4375 -13.109375 Z M 10.4375 -23.5 L 10.5625 -23.5 C 12.320312 -26.625 15.050781 -28.1875 18.75 -28.1875 C 22.039062 -28.1875 24.765625 -26.925781 26.921875 -24.40625 C 29.085938 -21.894531 30.171875 -18.441406 30.171875 -14.046875 C 30.171875 -9.722656 29.164062 -6.175781 27.15625 -3.40625 C 25.15625 -0.644531 22.304688 0.734375 18.609375 0.734375 C 14.992188 0.734375 12.410156 -0.675781 10.859375 -3.5 L 10.765625 -3.5 L 10.765625 10.6875 L 3.53125 10.6875 L 3.53125 -27.46875 L 10.4375 -27.46875 Z M 10.4375 -23.5 "/></g></g></g><g fill="#023e8a" fill-opacity="1"><g transform="translate(290.128768, 207.558528)"><g><path d="M 22.390625 -13.734375 C 22.390625 -16.359375 21.84375 -18.410156 20.75 -19.890625 C 19.664062 -21.367188 18.035156 -22.109375 15.859375 -22.109375 C 13.828125 -22.109375 12.226562 -21.414062 11.0625 -20.03125 C 9.90625 -18.644531 9.328125 -16.546875 9.328125 -13.734375 C 9.328125 -10.984375 9.890625 -8.898438 11.015625 -7.484375 C 12.140625 -6.078125 13.753906 -5.375 15.859375 -5.375 C 18.023438 -5.375 19.65625 -6.101562 20.75 -7.5625 C 21.84375 -9.019531 22.390625 -11.078125 22.390625 -13.734375 Z M 29.828125 -13.734375 C 29.828125 -9.242188 28.535156 -5.707031 25.953125 -3.125 C 23.367188 -0.550781 20.003906 0.734375 15.859375 0.734375 C 11.773438 0.734375 8.425781 -0.546875 5.8125 -3.109375 C 3.195312 -5.671875 1.890625 -9.210938 1.890625 -13.734375 C 1.890625 -18.285156 3.195312 -21.832031 5.8125 -24.375 C 8.425781 -26.914062 11.773438 -28.1875 15.859375 -28.1875 C 20.035156 -28.1875 23.40625 -26.882812 25.96875 -24.28125 C 28.539062 -21.6875 29.828125 -18.171875 29.828125 -13.734375 Z M 29.828125 -13.734375 "/></g></g></g><g fill="#023e8a" fill-opacity="1"><g transform="translate(320.329919, 207.558528)"><g><path d="M 11.59375 -27.46875 L 16.078125 -27.46875 L 16.078125 -22.3125 L 11.59375 -22.3125 L 11.59375 -6.90625 C 11.59375 -6.1875 11.789062 -5.71875 12.1875 -5.5 C 12.582031 -5.28125 13.191406 -5.171875 14.015625 -5.171875 C 14.835938 -5.171875 15.523438 -5.203125 16.078125 -5.265625 L 16.078125 0.09375 C 15.023438 0.269531 13.722656 0.359375 12.171875 0.359375 C 9.316406 0.359375 7.300781 -0.0703125 6.125 -0.9375 C 4.945312 -1.8125 4.359375 -3.375 4.359375 -5.625 L 4.359375 -22.3125 L 0.625 -22.3125 L 0.625 -27.46875 L 4.359375 -27.46875 L 4.359375 -34.890625 L 11.59375 -34.890625 Z M 11.59375 -27.46875 "/></g></g></g></svg>