<svg width="152" height="85" viewBox="0 0 152 85" fill="none" xmlns="http://www.w3.org/2000/svg">
<path d="M98.9999 0L87.8586 32.7276C87.3163 34.3206 86.0745 35.5778 84.4882 36.1396L73.9142 39.8845C68.3909 41.8407 64.0457 34.9543 68.1889 30.811L98.9999 0Z" fill="#B071FF"/>
<path d="M51 0L61.4039 33.2926C61.9348 34.9912 63.2547 36.3281 64.9464 36.8805L77.1524 40.8661C82.6521 42.6619 86.8396 35.8396 82.7487 31.7487L51 0Z" fill="#00B7C6"/>
<path d="M51 0V37C51 43.0751 55.9249 48 62 48H76C80.5323 48 83.1194 42.8258 80.4 39.2L51 0Z" fill="#00FFE0"/>
<path d="M51 0V37C51 43.0751 55.9249 48 62 48H76C80.5323 48 83.1194 42.8258 80.4 39.2L51 0Z" fill="#12EDFF"/>
<path d="M51 0V37C51 43.0751 55.9249 48 62 48H76C80.5323 48 83.1194 42.8258 80.4 39.2L51 0Z" fill="url(#paint0_linear_23_113)" fill-opacity="0.22"/>
<path opacity="0.22" d="M73.5 30L63 48L78 36L73.5 30Z" fill="black"/>
<path d="M98.9999 0V37C98.9999 43.0751 94.0751 48 87.9999 48H62.9999L98.9999 0Z" fill="#8139DC"/>
<path d="M98.9999 0V37C98.9999 43.0751 94.0751 48 87.9999 48H62.9999L98.9999 0Z" fill="url(#paint1_linear_23_113)" fill-opacity="0.2"/>
<path opacity="0.2" d="M93.0001 30V31C93.0001 37.0751 88.0752 42 82.0001 42H81.0001M93.0001 24V21" stroke="white" stroke-width="4" stroke-linecap="round" stroke-linejoin="round"/>
<path d="M2.41944 77L2.41944 64.9428H4.72753L9.86045 73.4517H8.6375L13.6843 64.9428H15.9752L16.0096 77H13.3915L13.3743 68.9561H13.8565L9.826 75.7254H8.56861L4.45194 68.9561H5.03757L5.03757 77H2.41944ZM18.6635 77L24.0376 64.9428H26.7935L32.1848 77H29.2566L24.8472 66.3552H25.9495L21.5228 77H18.6635ZM21.3506 74.4163L22.0912 72.2977H28.2921L29.0499 74.4163H21.3506ZM36.7057 77V67.2165H32.8474V64.9428H43.3544V67.2165H39.4961V77H36.7057ZM48.8002 69.8001L54.6049 69.8001V71.9704L48.8002 71.9704V69.8001ZM49.0069 74.7608L55.5694 74.7608V77H46.2337V64.9428L55.3455 64.9428V67.182H49.0069V74.7608ZM59.1676 77V64.9428H64.3867C65.4661 64.9428 66.3962 65.1208 67.177 65.4768C67.9579 65.8213 68.5608 66.3208 68.9856 66.9753C69.4105 67.6298 69.6229 68.4107 69.6229 69.3178C69.6229 70.2135 69.4105 70.9886 68.9856 71.6432C68.5608 72.2862 67.9579 72.78 67.177 73.1245C66.3962 73.469 65.4661 73.6412 64.3867 73.6412H60.7178L61.958 72.4183V77H59.1676ZM66.8326 77L63.8183 72.625H66.7981L69.8469 77H66.8326ZM61.958 72.7283L60.7178 71.4192H64.2316C65.0929 71.4192 65.7359 71.2355 66.1608 70.8681C66.5857 70.4891 66.7981 69.9724 66.7981 69.3178C66.7981 68.6518 66.5857 68.1351 66.1608 67.7676C65.7359 67.4002 65.0929 67.2165 64.2316 67.2165H60.7178L61.958 65.8902V72.7283ZM73.2117 77V64.9428H76.0021V77H73.2117ZM78.6568 77L84.0309 64.9428H86.7868L92.1781 77H89.2499L84.8404 66.3552H85.9428L81.5161 77H78.6568ZM81.3438 74.4163L82.0845 72.2977H88.2853L89.0432 74.4163H81.3438ZM94.807 77V64.9428H97.5974V74.7264H103.643V77H94.807ZM135.987 77.2067C134.276 77.2067 132.938 76.7301 131.974 75.7771C131.009 74.824 130.527 73.4632 130.527 71.6948V64.9428H133.317V71.5915C133.317 72.7398 133.552 73.5666 134.023 74.0718C134.494 74.5771 135.154 74.8297 136.004 74.8297C136.854 74.8297 137.514 74.5771 137.985 74.0718C138.456 73.5666 138.691 72.7398 138.691 71.5915V64.9428H141.447V71.6948C141.447 73.4632 140.965 74.824 140 75.7771C139.036 76.7301 137.698 77.2067 135.987 77.2067ZM145.582 77V64.9428H148.373V77H145.582Z" fill="black" fill-opacity="0.87"/>
<path d="M111.975 77V75.1914L116.626 70.7992C116.993 70.4662 117.263 70.1676 117.435 69.9035C117.607 69.6394 117.722 69.3982 117.78 69.1801C117.849 68.9619 117.883 68.7609 117.883 68.5772C117.883 68.0949 117.717 67.7274 117.384 67.4748C117.062 67.2107 116.585 67.0787 115.954 67.0787C115.449 67.0787 114.978 67.1763 114.541 67.3715C114.117 67.5667 113.755 67.871 113.456 68.2844L111.424 66.9753C111.883 66.2863 112.526 65.7409 113.353 65.339C114.18 64.9371 115.133 64.7361 116.212 64.7361C117.108 64.7361 117.889 64.8854 118.555 65.184C119.232 65.471 119.755 65.8787 120.122 66.4069C120.501 66.9351 120.691 67.5667 120.691 68.3016C120.691 68.692 120.639 69.0824 120.536 69.4729C120.444 69.8518 120.249 70.2537 119.95 70.6786C119.663 71.1035 119.238 71.58 118.675 72.1082L114.817 75.7426L114.283 74.7264H121.087V77H111.975Z" fill="#6202EE"/>
<defs>
<linearGradient id="paint0_linear_23_113" x1="69" y1="0" x2="69" y2="48" gradientUnits="userSpaceOnUse">
<stop stop-color="white"/>
<stop offset="1" stop-color="white" stop-opacity="0"/>
</linearGradient>
<linearGradient id="paint1_linear_23_113" x1="80.9999" y1="0" x2="80.9999" y2="48" gradientUnits="userSpaceOnUse">
<stop stop-color="white"/>
<stop offset="1" stop-color="white" stop-opacity="0"/>
</linearGradient>
</defs>
</svg>
